<svg xmlns="http://www.w3.org/2000/svg" viewBox="0 0 192.7 45.11"><defs><style>.cls-1{fill:#fff;}.cls-2{fill:#f37421;}</style></defs><g id="Layer_2" data-name="Layer 2"><g id="Layer_1-2" data-name="Layer 1"><path class="cls-1" d="M0,45.11V0H25.21V4.79H6.4V19.26H22.16V24H6.4V40.32H26.52v4.79Z"/><path class="cls-1" d="M36.61,45.11V12h6v6.22q4.76-7,11.64-7A9,9,0,0,1,61.13,14a10.36,10.36,0,0,1,2.54,7.33V45.11h-6V23.29c0-2.46-.36-4.22-1.08-5.26A4,4,0,0,0,53,16.46q-5.52,0-10.4,7.22V45.11Z"/><path class="cls-1" d="M124.52,45.11V40.6L145,16.52H125.47V12h26.94v4.51L131.92,40.6h20.89v4.51Z"/><path class="cls-1" d="M182.83,40.14q-5.4,5-10.39,5a9.51,9.51,0,0,1-6.83-2.58A8.56,8.56,0,0,1,162.9,36a9.33,9.33,0,0,1,4.55-8.34q4.56-2.91,13.09-2.91H182v-4c0-3.84-2-5.76-6-5.76A22,22,0,0,0,165.76,18V13a30.45,30.45,0,0,1,11.43-2.46c3.68,0,6.39.83,8.14,2.51S188,17.29,188,20.79v15c0,3.44,1.06,5.15,3.17,5.15a8.2,8.2,0,0,0,1.16-.12l.42,3.32a10.32,10.32,0,0,1-4.51,1Q184,45.11,182.83,40.14ZM182,36.88V28.31L180,28.25A15.43,15.43,0,0,0,172,30.11a5.6,5.6,0,0,0-3.06,4.94,5,5,0,0,0,1.52,3.66,5.15,5.15,0,0,0,3.72,1.49Q177.89,40.2,182,36.88Z"/><path class="cls-2" d="M87,34A7.88,7.88,0,0,1,82.72,31q-2.48-3.39-2.48-9.56t2.48-9.55a9,9,0,0,1,14,0q2.49,3.39,2.49,9.55T96.75,31a8,8,0,0,1-3.62,2.81,8.76,8.76,0,0,0,1.08,4.49l.1.13a13.85,13.85,0,0,0,7.1-4.19q4.31-4.72,4.31-12.8T101.41,8.64C98.55,5.5,94.65,3.93,89.74,3.93S80.93,5.5,78.07,8.64,73.76,16,73.76,21.42s1.44,9.65,4.31,12.8a14.33,14.33,0,0,0,9.53,4.61A13,13,0,0,1,87,34.9Z"/><path class="cls-2" d="M93.12,22.49H87V34a10,10,0,0,0,2.68.34,9.46,9.46,0,0,0,3.41-.58c0-.28,0-.57,0-.86Z"/><path class="cls-2" d="M108.35,10.84V32.56q-4.93,7.3-10.48,7.3a4.19,4.19,0,0,1-3.56-1.45,18.91,18.91,0,0,1-4.57.53,21.13,21.13,0,0,1-2.14-.11,8.83,8.83,0,0,0,9,6.28q6.91,0,11.75-7.07v6.3h6.08V10.84Z"/><path class="cls-2" d="M94.31,38.41l-.1-.13a8.76,8.76,0,0,1-1.08-4.49,9.46,9.46,0,0,1-3.41.58A10,10,0,0,1,87,34v.87a13,13,0,0,0,.56,3.93,21.13,21.13,0,0,0,2.14.11A18.91,18.91,0,0,0,94.31,38.41Z"/></g></g></svg>