<svg xmlns="http://www.w3.org/2000/svg" viewBox="0 0 40.67 40.69"><defs><style>.cls-1{fill:#f37421;}</style></defs><g id="Layer_2" data-name="Layer 2"><g id="Layer_1-2" data-name="Layer 1"><path class="cls-1" d="M15.79,34.59q-7.29,0-11.54-4.66T0,17.28q0-8,4.25-12.63T15.79,0q7.28,0,11.53,4.65t4.26,12.63q0,8-4.26,12.65T15.79,34.59Zm0-4.51a8.12,8.12,0,0,0,6.94-3.35c1.64-2.24,2.47-5.38,2.47-9.45s-.83-7.21-2.47-9.43a8.11,8.11,0,0,0-6.94-3.34A8.07,8.07,0,0,0,8.85,7.85C7.22,10.07,6.4,13.22,6.4,17.28s.82,7.21,2.45,9.45A8.07,8.07,0,0,0,15.77,30.08Z"/><path class="cls-1" d="M34.66,39.93V33.71q-4.78,7-11.61,7A9,9,0,0,1,16.16,38,10.35,10.35,0,0,1,13.6,30.6V6.83h6V28.65q0,3.72,1.08,5.29a4.08,4.08,0,0,0,3.61,1.57q5.49,0,10.36-7.23V6.83h6v33.1Z"/></g></g></svg>